<svg width="94" height="94" viewBox="0 0 94 94" fill="none" xmlns="http://www.w3.org/2000/svg">
<path d="M11.9755 3.01699C13.2646 1.77089 14.581 -0.104107 16.6356 0.2748C19.163 0.524799 20.1591 4.1498 18.1669 5.70839C12.0302 11.2631 7.72549 18.9428 6.71377 27.2006C5.26455 37.892 9.43643 49.0365 17.3075 56.3646C18.6317 57.4506 19.7255 59.099 19.0224 60.8686C18.2411 62.6811 15.663 63.3373 14.1708 62.0092C5.61612 54.4857 0.182522 43.3217 0.213772 31.8607C-0.0206035 21.1576 4.49893 10.6068 11.9755 3.01699Z" fill="#EC23A5"/>
<path d="M75.2411 1.87245C76.0067 0.411511 78.0224 -0.291614 79.4677 0.599011C81.0067 1.64198 82.2138 3.0912 83.4677 4.44667C90.0966 11.7631 94.0067 21.5678 93.9091 31.4662C94.0497 42.4271 89.1864 53.142 81.3622 60.7318C80.4013 61.6303 79.3856 62.8256 77.9286 62.7006C76.6825 62.7709 75.6786 61.9037 75.1044 60.8803C74.3895 59.099 75.495 57.4506 76.827 56.3607C82.4481 51.06 86.2645 43.849 87.3583 36.1928C88.1708 29.9349 87.3778 23.4271 84.6981 17.6849C82.6981 13.1185 79.6122 9.07557 75.9559 5.70448C74.8739 4.78651 74.5497 3.11464 75.2411 1.87245Z" fill="#EC23A5"/>
<path d="M25.1825 10.3412C26.538 9.09117 29.0224 9.49352 29.8661 11.1537C30.6708 12.4349 30.2958 14.1732 29.1591 15.1263C25.6161 18.5599 23.0614 23.0912 22.3505 28.0013C21.2021 34.8334 23.5536 42.0794 28.3935 47.013C29.4286 48.0482 30.7255 49.349 30.2294 50.9623C29.7763 53.0287 27.038 54.0873 25.3661 52.7552C21.1239 49.0287 18.0927 43.9662 16.6982 38.5013C14.8817 31.4232 15.8935 23.6224 19.5927 17.3021C21.1083 14.7357 22.9482 12.3295 25.1825 10.3412Z" fill="#EC23A5"/>
<path d="M64.7685 10.5131C65.8662 9.26305 68.0302 9.33336 69.1513 10.5209C74.6865 15.6849 78.1865 23.0834 78.2763 30.6888C78.374 33.2513 78.0537 35.8099 77.5146 38.3099L77.374 38.6185C77.3037 38.6732 77.1669 38.7904 77.0966 38.849C77.0146 40.5365 76.2959 42.0873 75.5966 43.5951C73.9794 46.974 71.7412 50.0677 68.9677 52.5951C67.3427 54.1302 64.2919 53.1576 63.9052 50.9349C63.413 49.4388 64.5459 48.1693 65.538 47.2162C70.5068 42.2474 72.9755 34.849 71.749 27.9076C71.0185 23.0287 68.4873 18.5287 64.956 15.1224C63.581 14.017 63.4521 11.7084 64.7685 10.5131Z" fill="#EC23A5"/>
<path d="M45.5223 15.8568C46.4091 15.7591 47.3036 15.8216 48.1903 15.8802C51.5966 16.1849 54.9755 17.4896 57.4794 19.8646C60.9559 22.931 62.9637 27.6107 62.6434 32.2513C62.4598 39.1615 57.0184 45.474 50.2372 46.7552C50.1278 57.2357 50.2528 67.7123 50.1942 78.1927C50.1356 82.4115 50.2762 86.6341 50.1552 90.8529C50.2684 92.6966 48.4325 94.2474 46.6317 93.9271C45.288 93.8021 44.0927 92.6224 43.9989 91.267C43.7802 86.9115 44.0145 82.5521 43.9286 78.1966C43.8231 67.7279 44.0145 57.2631 43.9052 46.7982C38.3427 45.6459 33.5887 41.2943 32.0536 35.8099C30.8427 31.638 31.4364 26.9466 33.7841 23.267C36.2802 19.1341 40.7606 16.4349 45.5223 15.8568ZM45.9598 22.1849C42.0575 22.5365 38.6981 25.7084 37.8778 29.5013C37.5458 31.4584 37.6669 33.5482 38.5341 35.3607C39.9989 38.6185 43.4442 40.9232 47.0458 40.8216C52.0106 40.9974 56.6044 36.4974 56.4012 31.4974C56.6591 26.0834 51.3153 21.3334 45.9598 22.1849Z" fill="#EC23A5"/>
</svg>
