<svg width="24" height="24" viewBox="0 0 24 24" fill="none" xmlns="http://www.w3.org/2000/svg">
<path d="M11.9999 12.6008C11.8666 12.6008 11.7416 12.5802 11.6249 12.5389C11.5082 12.4977 11.3999 12.4268 11.2999 12.3264L6.69991 7.73678C6.51658 7.55387 6.42058 7.32505 6.41192 7.05034C6.40325 6.77563 6.49925 6.53883 6.69991 6.33995C6.88325 6.15703 7.11658 6.06557 7.39992 6.06557C7.68325 6.06557 7.91658 6.15703 8.09992 6.33995L11.9999 10.2062L15.8999 6.33995C16.0832 6.15703 16.3126 6.06158 16.5879 6.05359C16.8632 6.04561 17.1006 6.14106 17.2999 6.33995C17.4832 6.52286 17.5749 6.75567 17.5749 7.03837C17.5749 7.32106 17.4832 7.55387 17.2999 7.73678L12.6999 12.3264C12.5999 12.4262 12.4916 12.497 12.3749 12.5389C12.2582 12.5808 12.1332 12.6014 11.9999 12.6008ZM11.9999 18.5872C11.8666 18.5872 11.7416 18.5666 11.6249 18.5254C11.5082 18.4841 11.3999 18.4133 11.2999 18.3129L6.69991 13.7232C6.51658 13.5403 6.42058 13.3118 6.41192 13.0378C6.40325 12.7637 6.49925 12.5266 6.69991 12.3264C6.88325 12.1435 7.11658 12.052 7.39992 12.052C7.68325 12.052 7.91658 12.1435 8.09992 12.3264L11.9999 16.1927L15.8999 12.3264C16.0832 12.1435 16.3126 12.0477 16.5879 12.0391C16.8632 12.0304 17.1006 12.1262 17.2999 12.3264C17.4832 12.5093 17.5749 12.7421 17.5749 13.0248C17.5749 13.3075 17.4832 13.5403 17.2999 13.7232L12.6999 18.3129C12.5999 18.4126 12.4916 18.4835 12.3749 18.5254C12.2582 18.5673 12.1332 18.5879 11.9999 18.5872Z" fill="#EC23A5"/>
</svg>
