<svg width="94" height="94" viewBox="0 0 94 94" fill="none" xmlns="http://www.w3.org/2000/svg">
<g filter="url(#filter0_b_247_3)">
<path d="M56.1961 9.38477C56.2195 4.81836 59.8523 0.552734 64.4422 0.0996094C67.3094 -0.0332031 70.1844 -0.0332031 73.0477 0.0996094C77.6336 0.544922 81.2781 4.81055 81.2899 9.37305C84.3953 9.45898 87.5047 9.37695 90.6141 9.39648C92.2781 9.33398 93.8016 10.834 93.7274 12.5098C93.8016 14.1543 92.3055 15.6816 90.6531 15.6035C87.5242 15.6387 84.3953 15.6074 81.2703 15.6621C81.2391 19.2598 79.032 22.7363 75.7195 24.1816C73.2274 25.4121 70.3875 24.8105 67.7234 25.0527C65.8289 24.9512 63.8016 25.1699 62.0477 24.2988C60.7742 23.7168 59.5711 22.9473 58.6258 21.9004C57.0984 20.1777 56.2977 17.9277 56.2 15.6387C38.5008 15.584 20.8055 15.6621 3.10625 15.5996C1.28203 15.709 -0.284375 13.8652 0.0437499 12.0762C0.196094 10.4199 1.86406 9.23242 3.48125 9.37695C21.0516 9.40039 38.6258 9.4082 56.1961 9.38477ZM64.6063 6.42383C63.2195 6.88086 62.3602 8.34961 62.4813 9.78711C62.5555 11.7402 62.407 13.6973 62.5008 15.6504C62.4656 17.2949 63.9461 18.8184 65.6063 18.7324C67.7039 18.7246 69.7977 18.8496 71.8914 18.752C73.3953 18.7754 74.8172 17.5488 74.9539 16.0449C75.1258 13.8301 74.9578 11.6035 74.9695 9.38477C75.0789 7.54492 73.2742 6.06836 71.4969 6.24805C69.2039 6.33008 66.8758 6.06055 64.6063 6.42383Z" fill="#EC23A5"/>
</g>
<g filter="url(#filter1_b_247_3)">
<path d="M34.3837 43.7051C34.2391 38.8613 38.5282 34.4473 43.3641 34.4199C46.4735 34.4004 49.6571 34.0606 52.7118 34.7715C56.5555 35.916 59.4032 39.6934 59.3876 43.7129C63.5399 43.8457 67.6962 43.6934 71.8485 43.7324C78.243 43.8301 84.6493 43.7051 91.0438 43.8067C93.3993 43.9668 94.6141 47.1778 93.0087 48.8848C92.1766 49.9942 90.704 50.0918 89.4383 50.0098C83.5751 50.0215 77.7118 49.9473 71.8485 50.041C67.7001 50.0449 63.5477 50.0137 59.3993 50.0449C59.3368 53.6192 57.1766 57.1465 53.8446 58.5567C51.6883 59.6426 49.2157 59.3028 46.8954 59.3535C44.5555 59.2832 42.0516 59.6778 39.8915 58.5488C36.6141 57.0918 34.3446 53.6426 34.3524 50.0528C30.204 49.9707 26.0516 50.0332 21.9032 49.9942C16.6883 50.0098 11.4774 50.0059 6.26256 49.9981C4.89537 50.002 3.50865 50.1387 2.161 49.8574C0.535996 49.3653 -0.397598 47.4668 0.164902 45.8653C0.586778 44.6621 1.80162 43.7168 3.11022 43.791C9.37193 43.7324 15.6337 43.7637 21.8954 43.7363C26.0555 43.6504 30.2235 43.8848 34.3837 43.7051ZM43.0672 40.752C41.6883 40.9746 40.5868 42.3418 40.6727 43.7403C40.6337 45.834 40.6258 47.9278 40.6571 50.0215C40.5672 51.666 42.0907 53.1817 43.7313 53.0918C45.8212 53.0957 47.911 53.1231 49.9969 53.1035C51.6415 53.1973 53.1532 51.6699 53.0751 50.0371C53.0985 47.9356 53.1024 45.834 53.079 43.7324C53.1376 42.1153 51.6766 40.6192 50.0555 40.666C47.7313 40.5957 45.3876 40.5332 43.0672 40.752Z" fill="#EC23A5"/>
</g>
<g filter="url(#filter2_b_247_3)">
<path d="M15.6179 70.3339C18.5984 67.9511 22.6023 69.0488 26.0906 68.7441C28.3601 68.7832 30.7625 68.4707 32.8875 69.4511C34.0984 69.9628 35.114 70.8417 35.9382 71.8535C37.3445 73.6425 37.5515 75.955 37.5359 78.1464C54.575 78.1269 71.614 78.1386 88.657 78.1347C90.1453 78.1816 91.9812 77.8769 93.0007 79.2519C94.6218 80.9628 93.3875 84.2207 91.0046 84.3339C73.1804 84.4511 55.3562 84.3261 37.532 84.3808C37.446 85.8027 37.5593 87.2792 37.0164 88.6308C35.9929 91.498 33.1453 93.6621 30.075 93.7246C26.8171 93.8066 23.5515 93.7167 20.2898 93.7324C17.1023 93.8183 14.0671 91.6386 12.989 88.666C12.4461 87.3222 12.5203 85.8457 12.5125 84.4277C9.25074 84.2714 5.9734 84.4824 2.71168 84.3261C1.04762 84.2128 -0.241447 82.4785 0.0437091 80.8457C0.176522 79.3378 1.60621 78.1113 3.11012 78.1425C6.23902 78.0878 9.37574 78.2363 12.5046 78.0996C12.2273 75.1972 13.1648 72.08 15.6179 70.3339ZM19.6336 75.1582C18.9343 75.4472 18.7 76.248 18.7312 76.9472C18.6843 79.8183 18.7859 82.6894 18.7312 85.5605C18.6101 86.5058 19.2625 87.5214 20.2781 87.5019C23.4265 87.5449 26.5789 87.5019 29.7273 87.5097C30.7351 87.5058 31.3796 86.5097 31.2625 85.5683C31.2586 82.5644 31.3093 79.5605 31.2351 76.5605C31.282 75.541 30.2546 74.873 29.3171 74.9941C26.0945 75.08 22.8289 74.7792 19.6336 75.1582Z" fill="#EC23A5"/>
</g>
<defs>
<filter id="filter0_b_247_3" x="-4" y="-4" width="101.73" height="33.0527" filterUnits="userSpaceOnUse" color-interpolation-filters="sRGB">
<feFlood flood-opacity="0" result="BackgroundImageFix"/>
<feGaussianBlur in="BackgroundImageFix" stdDeviation="2"/>
<feComposite in2="SourceAlpha" operator="in" result="effect1_backgroundBlur_247_3"/>
<feBlend mode="normal" in="SourceGraphic" in2="effect1_backgroundBlur_247_3" result="shape"/>
</filter>
<filter id="filter1_b_247_3" x="-3.99951" y="30.3218" width="101.738" height="33.0441" filterUnits="userSpaceOnUse" color-interpolation-filters="sRGB">
<feFlood flood-opacity="0" result="BackgroundImageFix"/>
<feGaussianBlur in="BackgroundImageFix" stdDeviation="2"/>
<feComposite in2="SourceAlpha" operator="in" result="effect1_backgroundBlur_247_3"/>
<feBlend mode="normal" in="SourceGraphic" in2="effect1_backgroundBlur_247_3" result="shape"/>
</filter>
<filter id="filter2_b_247_3" x="-3.99597" y="64.7263" width="101.732" height="33.0333" filterUnits="userSpaceOnUse" color-interpolation-filters="sRGB">
<feFlood flood-opacity="0" result="BackgroundImageFix"/>
<feGaussianBlur in="BackgroundImageFix" stdDeviation="2"/>
<feComposite in2="SourceAlpha" operator="in" result="effect1_backgroundBlur_247_3"/>
<feBlend mode="normal" in="SourceGraphic" in2="effect1_backgroundBlur_247_3" result="shape"/>
</filter>
</defs>
</svg>
