<svg width="82" height="82" viewBox="0 0 82 82" fill="none" xmlns="http://www.w3.org/2000/svg">
<g filter="url(#filter0_b_247_29)">
<path d="M12.3089 11.5058C19.5862 4.3847 29.637 0.0878255 39.844 0.0253255C45.0003 -0.1778 50.1214 0.857358 54.9768 2.54095C61.3479 5.08001 67.1643 9.0722 71.5784 14.3456C77.7034 21.4706 81.1956 30.8144 81.2151 40.2089C81.3284 47.6347 79.3323 55.0917 75.4807 61.4433C70.5823 69.6464 62.7112 76.0527 53.6448 79.0917C44.4925 82.2089 34.2151 81.9042 25.2698 78.2206C14.8831 74.0566 6.57839 65.3339 2.52761 54.9433C0.855734 50.0917 -0.171609 44.9863 0.0237033 39.8339C0.101828 29.2519 4.7073 18.8378 12.3089 11.5058ZM13.9065 19.1269C18.055 21.1503 22.4729 22.6035 26.9925 23.5331C28.3557 17.6816 30.7581 12.1113 33.8245 6.96283C26.0276 8.46283 18.7893 12.8652 13.9065 19.1269ZM47.4221 6.98626C50.469 12.1308 52.887 17.6777 54.2229 23.5214C56.9768 23.0253 59.6643 22.1777 62.3245 21.2949C64.0198 20.6035 65.719 19.9042 67.3675 19.0995C65.3675 16.5527 62.9417 14.3574 60.3284 12.455C56.4417 9.82611 52.0628 7.79095 47.4221 6.98626ZM39.926 9.04486C36.8167 13.7714 34.6214 19.0722 33.2776 24.5566C38.1096 25.1503 43.0003 24.9902 47.8518 24.6581C47.8089 23.0683 47.0237 21.6074 46.6682 20.0722C45.1995 15.9433 43.3401 11.912 40.7893 8.33783C40.3362 8.08002 40.1682 8.81048 39.926 9.04486ZM10.3401 24.3183C4.9612 34.2675 4.78933 47.0566 10.4651 56.9003C15.2385 54.3222 20.4729 52.7011 25.7503 51.5214C24.7932 44.2831 24.7542 36.9199 25.7581 29.6855C20.4104 28.5722 15.2151 26.787 10.3401 24.3183ZM62.8206 27.7597C62.5667 27.787 62.055 27.8495 61.801 27.8808L61.8909 27.9433L61.7346 27.8808C59.8089 28.8105 57.6526 29.1816 55.5706 29.6269C55.4417 31.0878 55.8792 32.5214 55.969 33.9706C56.2425 37.8535 56.2815 41.7519 56.0784 45.6386L56.469 45.3769C55.5589 47.2636 55.8401 49.5097 55.4651 51.5488C60.762 52.6855 66.0159 54.3183 70.7776 56.9316C76.4143 47.0566 76.344 34.1972 70.8167 24.2831C68.2815 25.7206 65.5276 26.7089 62.8206 27.7597ZM31.9456 30.7636C31.0393 37.3066 31.055 43.955 31.9456 50.498C37.5823 49.8691 43.301 49.7831 48.93 50.4902L49.2307 50.3613C50.2893 43.8964 50.1253 37.2675 49.2854 30.7792C43.5237 31.3574 37.7073 31.3456 31.9456 30.7636ZM33.2542 56.7089C33.68 58.2206 34.1292 59.7245 34.5745 61.2285L34.6292 61.2167C35.9026 65.0722 37.6604 68.7832 39.9378 72.1503C40.1721 72.3535 40.3987 73.2441 40.801 72.8613C44.2503 68.0175 46.4768 62.4199 48.0003 56.7011C47.1292 56.5488 46.2307 56.3964 45.3518 56.5097C41.3479 56.0956 37.2425 56.1699 33.2542 56.7089ZM15.762 61.3417C15.0823 61.4316 14.4925 61.8574 13.8714 62.1269C18.8323 68.3847 26.0667 72.7324 33.8831 74.33C31.5862 70.541 29.7542 66.4941 28.2542 62.3261C27.8596 60.787 27.3792 59.2675 26.9807 57.7245C23.1331 58.4902 19.2698 59.5722 15.762 61.3417ZM54.1839 57.9277C52.7893 63.7128 50.3987 69.2207 47.3675 74.33C55.1878 72.7363 62.4026 68.3691 67.3753 62.1269C63.7034 60.3222 59.8128 58.9667 55.8362 58.0253C55.3128 58.0058 54.637 57.5761 54.1839 57.9277Z" fill="#EC23A5"/>
</g>
<defs>
<filter id="filter0_b_247_29" x="-10" y="-10" width="101.22" height="101.226" filterUnits="userSpaceOnUse" color-interpolation-filters="sRGB">
<feFlood flood-opacity="0" result="BackgroundImageFix"/>
<feGaussianBlur in="BackgroundImageFix" stdDeviation="5"/>
<feComposite in2="SourceAlpha" operator="in" result="effect1_backgroundBlur_247_29"/>
<feBlend mode="normal" in="SourceGraphic" in2="effect1_backgroundBlur_247_29" result="shape"/>
</filter>
</defs>
</svg>
