<?xml version="1.0" encoding="UTF-8"?>
<svg id="Capa_1" data-name="Capa 1" xmlns="http://www.w3.org/2000/svg" xmlns:xlink="http://www.w3.org/1999/xlink" viewBox="0 0 190.92 160.03">
  <defs>
    <style>
      .cls-1 {
        fill: #4c35d7;
      }

      .cls-2 {
        fill: url(#Degradado_sin_nombre_5-3);
      }

      .cls-3 {
        fill: url(#Degradado_sin_nombre_5-2);
      }

      .cls-4 {
        fill: url(#Degradado_sin_nombre_5);
      }

      .cls-5 {
        fill: #4838d2;
      }
    </style>
    <linearGradient id="Degradado_sin_nombre_5" data-name="Degradado sin nombre 5" x1="25.2" y1="160.03" x2="25.2" y2="0" gradientUnits="userSpaceOnUse">
      <stop offset="0" stop-color="#e81dad"/>
      <stop offset="1" stop-color="#9bccf7"/>
    </linearGradient>
    <linearGradient id="Degradado_sin_nombre_5-2" data-name="Degradado sin nombre 5" x1="96.23" y1="159.07" x2="96.23" y2="45.08" xlink:href="#Degradado_sin_nombre_5"/>
    <linearGradient id="Degradado_sin_nombre_5-3" data-name="Degradado sin nombre 5" x1="169.97" y1="159.24" x2="169.97" y2="81.7" xlink:href="#Degradado_sin_nombre_5"/>
  </defs>
  <path class="cls-4" d="m50.39.48l-16.3,145.81s-3.15,14.94-18.44,13.65c-15.3-1.29-15.65-12.87-15.65-12.87L12.37,27.36S23.37-4.24,50.39.48Z"/>
  <polygon class="cls-5" points="42.04 75.24 72.37 158.62 81.38 84.32 50.39 .48 42.04 75.24"/>
  <path class="cls-3" d="m81.38,84.32s.21-14.15,5.04-21.66,18.98-19.73,33.67-17.26l-8.65,89.31s-9.51,28.23-39.06,23.91l9.01-74.3Z"/>
  <polygon class="cls-1" points="120.08 45.4 155.03 107.7 149.03 159.07 114.94 98.48 120.08 45.4"/>
  <path class="cls-2" d="m155.03,107.7s-.29-19.44,9.72-24.09,25.16-1,26.16,13.22c0,0,.43,32.31-9.44,48.6-9.86,16.3-32.45,13.64-32.45,13.64l6-51.38Z"/>
</svg>