<svg width="173" height="173" viewBox="0 0 173 173" fill="none" xmlns="http://www.w3.org/2000/svg">
<path d="M83.6822 2.44664C79.6501 -0.00429654 74.6044 -0.572109 70.0548 0.556328C62.8098 2.55445 57.3976 9.61977 57.4335 17.1595C57.6204 23.5348 57.2826 29.9245 57.5701 36.2926C57.7426 58.0563 57.7354 79.8344 57.5701 101.598C57.3904 105.796 57.5413 110 57.4335 114.205C57.4982 118.561 57.0454 123.125 58.7848 127.236C60.7829 132.346 65.4691 136.228 70.7807 137.485C75.2944 138.707 80.261 137.672 84.1494 135.135C96.3394 127.667 108.544 120.228 120.755 112.789C120.662 126.683 120.727 140.569 120.712 154.455C120.684 159.041 122.15 163.734 125.42 167.048C130.121 172.223 138.164 173.883 144.575 171.159C150.706 168.744 154.997 162.519 155.313 155.972C155.306 136.58 155.306 117.195 155.313 97.8032C163.959 97.7673 171.938 90.6373 172.455 81.9188C172.707 73.7682 172.484 65.6032 172.541 57.4454C172.613 50.6101 168.243 44.0838 161.94 41.4748C157.059 39.5557 151.719 40.2529 146.602 40.181C145.042 40.3751 143.87 39.1963 142.605 38.4991C122.998 26.4313 103.283 14.5432 83.6822 2.44664ZM77.9394 12.4948C97.7482 24.5482 117.499 36.7023 137.301 48.7629C138.487 49.2804 137.883 50.7179 137.991 51.6882C137.826 59.5945 138.12 67.5079 137.912 75.4213C137.797 79.8704 138.343 84.4632 137.747 88.8332C117.729 101.174 97.5829 113.335 77.5513 125.662C74.3026 127.789 69.336 125.331 69.1491 121.429C68.8185 115.477 69.3144 109.512 68.9479 103.56C68.7682 80.4957 68.7826 57.4166 68.9551 34.352C69.2498 29.831 68.9407 25.2957 69.0916 20.7676C69.1779 18.482 68.5526 15.8729 70.0619 13.9107C71.7941 11.467 75.4813 10.6691 77.9394 12.4948ZM160.919 56.6907C161.027 63.6554 160.912 70.6201 160.977 77.5848C160.854 79.9423 161.336 82.7813 159.295 84.5063C156.75 87.1298 152.761 85.9007 149.527 86.1595C149.613 74.681 149.549 63.2026 149.556 51.7241C151.928 51.8966 154.321 51.6091 156.679 51.8895C158.813 52.4932 160.754 54.4051 160.919 56.6907ZM143.763 98.7088C143.612 117.792 143.806 136.889 143.669 155.972C143.382 159.68 138.947 161.952 135.655 160.457C133.772 159.479 132.176 157.488 132.342 155.26C132.255 138.743 132.356 122.219 132.313 105.695C136.108 103.338 139.968 101.074 143.763 98.7088Z" fill="#EC23A5" fill-opacity="0.14"/>
<path d="M13.4388 34.7473C9.59345 33.2882 5.08689 36.846 5.82001 40.9357C6.23689 45.2985 11.261 46.2114 14.3875 48.0873C17.895 49.4817 21.3953 52.9029 25.3988 51.2067C29.6106 49.5607 29.9269 42.9339 25.8444 40.9717C21.7188 38.8801 17.6147 36.7239 13.4388 34.7473Z" fill="#EC23A5" fill-opacity="0.14"/>
<path d="M18.5419 63.3535C15.0056 62.9367 11.4191 63.3248 7.86127 63.1092C5.38158 62.9438 2.4922 63.3607 1.0547 65.6463C-1.49686 68.9167 0.875018 74.3432 5.02221 74.6379C9.10471 74.7529 13.2088 74.8895 17.2841 74.717C20.3388 74.7529 23.1203 72.0288 23.0053 68.9454C23.1635 66.322 21.0503 63.8926 18.5419 63.3535Z" fill="#EC23A5" fill-opacity="0.14"/>
<path d="M24.9388 86.4613C23.0197 85.5845 20.9066 86.5332 19.1672 87.4101C15.6957 89.2357 12.1163 90.8529 8.6591 92.7145C5.77691 94.2454 4.8641 98.3423 6.76878 100.973C8.3141 103.445 11.8647 104.107 14.3444 102.719C18.3263 100.721 22.3657 98.8238 26.2613 96.6748C30.121 94.3173 29.3016 87.7695 24.9388 86.4613Z" fill="#EC23A5" fill-opacity="0.14"/>
<path d="M93.788 44.9032C87.384 38.2044 78.1984 34.3951 68.9552 34.3519C68.7827 57.4166 68.7684 80.4957 68.948 103.56C74.353 103.388 79.8012 102.31 84.6168 99.7654C93.9749 95.0863 100.947 85.9294 102.909 75.6369C105.173 64.7119 101.622 52.831 93.788 44.9032Z" fill="#EC23A5"/>
<path d="M57.5702 36.2925C49.1465 39.3329 41.9086 45.6147 38.013 53.7079C33.3339 63.1019 33.2693 74.681 37.9627 84.0822C41.8727 92.2041 49.1105 98.5579 57.5702 101.598C57.7355 79.8344 57.7427 58.0563 57.5702 36.2925Z" fill="#EC23A5"/>
</svg>
