<svg width="226" height="226" viewBox="0 0 226 226" fill="none" xmlns="http://www.w3.org/2000/svg">
<g filter="url(#filter0_f_238_16)">
<circle cx="113" cy="113" r="46" fill="#EC23A5" fill-opacity="0.75"/>
</g>
<path d="M127.42 46.2441C123.388 43.7931 118.342 43.2253 113.792 44.3538C106.547 46.3519 101.135 53.4172 101.171 60.9569C101.358 67.3322 101.02 73.7219 101.308 80.09C101.48 101.854 101.473 123.632 101.308 145.396C101.128 149.593 101.279 153.798 101.171 158.003C101.236 162.358 100.783 166.922 102.522 171.033C104.52 176.144 109.207 180.025 114.518 181.283C119.032 182.505 123.998 181.47 127.887 178.933C140.077 171.465 152.281 164.026 164.493 156.587C164.399 170.48 164.464 184.366 164.45 198.253C164.421 202.838 165.887 207.532 169.157 210.845C173.858 216.02 181.901 217.68 188.312 214.956C194.443 212.541 198.734 206.317 199.05 199.769C199.043 180.377 199.043 160.993 199.05 141.601C207.697 141.565 215.675 134.435 216.192 125.716C216.444 117.566 216.221 109.401 216.279 101.243C216.351 94.4075 211.981 87.8812 205.677 85.2722C200.797 83.3531 195.457 84.0503 190.339 83.9784C188.779 84.1725 187.608 82.9938 186.343 82.2966C166.735 70.2288 147.02 58.3406 127.42 46.2441ZM121.677 56.2922C141.486 68.3456 161.237 80.4997 181.038 92.5603C182.224 93.0778 181.621 94.5153 181.728 95.4856C181.563 103.392 181.858 111.305 181.649 119.219C181.534 123.668 182.081 128.261 181.484 132.631C161.467 144.972 141.32 157.133 121.289 169.459C118.04 171.587 113.073 169.129 112.887 165.226C112.556 159.275 113.052 153.309 112.685 147.358C112.506 124.293 112.52 101.214 112.693 78.1494C112.987 73.6284 112.678 69.0931 112.829 64.565C112.915 62.2794 112.29 59.6703 113.799 57.7081C115.532 55.2644 119.219 54.4666 121.677 56.2922ZM204.657 100.488C204.764 107.453 204.649 114.418 204.714 121.382C204.592 123.74 205.073 126.579 203.032 128.304C200.488 130.927 196.499 129.698 193.264 129.957C193.351 118.478 193.286 107 193.293 95.5216C195.665 95.6941 198.058 95.4066 200.416 95.6869C202.551 96.2906 204.491 98.2025 204.657 100.488ZM187.5 142.506C187.349 161.589 187.543 180.686 187.407 199.769C187.119 203.478 182.684 205.749 179.392 204.254C177.509 203.277 175.914 201.286 176.079 199.058C175.993 182.541 176.093 166.017 176.05 149.492C179.845 147.135 183.705 144.871 187.5 142.506Z" fill="#EC23A5" fill-opacity="0.14"/>
<path d="M57.1762 78.5447C53.3309 77.0857 48.8243 80.6435 49.5574 84.7332C49.9743 89.096 54.9984 90.0088 58.1249 91.8847C61.6324 93.2791 65.1328 96.7003 69.1362 95.0041C73.3481 93.3582 73.6643 86.7313 69.5818 84.7691C65.4562 82.6775 61.3521 80.5213 57.1762 78.5447Z" fill="#EC23A5" fill-opacity="0.14"/>
<path d="M62.2793 107.151C58.7431 106.734 55.1565 107.122 51.5987 106.907C49.119 106.741 46.2296 107.158 44.7921 109.444C42.2406 112.714 44.6124 118.141 48.7596 118.435C52.8421 118.55 56.9462 118.687 61.0215 118.514C64.0762 118.55 66.8578 115.826 66.7428 112.743C66.9009 110.119 64.7878 107.69 62.2793 107.151Z" fill="#EC23A5" fill-opacity="0.14"/>
<path d="M68.6762 130.259C66.7571 129.382 64.644 130.331 62.9046 131.208C59.4331 133.033 55.8537 134.65 52.3965 136.512C49.5143 138.043 48.6015 142.14 50.5062 144.77C52.0515 147.243 55.6022 147.904 58.0818 146.517C62.0637 144.519 66.1031 142.621 69.9987 140.472C73.8584 138.115 73.039 131.567 68.6762 130.259Z" fill="#EC23A5" fill-opacity="0.14"/>
<path d="M137.525 88.7006C131.121 82.0019 121.936 78.1925 112.693 78.1494C112.52 101.214 112.506 124.293 112.685 147.358C118.09 147.185 123.539 146.107 128.354 143.563C137.712 138.884 144.684 129.727 146.646 119.434C148.91 108.509 145.36 96.6284 137.525 88.7006Z" fill="#EC23A5"/>
<path d="M101.308 80.09C92.8839 83.1303 85.6461 89.4122 81.7504 97.5053C77.0714 106.899 77.0067 118.478 81.7001 127.88C85.6101 136.002 92.8479 142.355 101.308 145.396C101.473 123.632 101.48 101.854 101.308 80.09Z" fill="#EC23A5"/>
<defs>
<filter id="filter0_f_238_16" x="0" y="0" width="226" height="226" filterUnits="userSpaceOnUse" color-interpolation-filters="sRGB">
<feFlood flood-opacity="0" result="BackgroundImageFix"/>
<feBlend mode="normal" in="SourceGraphic" in2="BackgroundImageFix" result="shape"/>
<feGaussianBlur stdDeviation="33.5" result="effect1_foregroundBlur_238_16"/>
</filter>
</defs>
</svg>
